<?xml version="1.0" encoding="utf-8"?>
<!-- Generator: Adobe Illustrator 24.0.0, SVG Export Plug-In . SVG Version: 6.00 Build 0)  -->
<svg version="1.2" baseProfile="tiny" xmlns="http://www.w3.org/2000/svg" xmlns:xlink="http://www.w3.org/1999/xlink" x="0px"
	 y="0px" viewBox="78.638 39.876 310 405.81" xml:space="preserve">
<g id="Webpack">
	<path display="none" fill="#FFFFFF" d="M235.02-22.801l128,72.401v144.835l-128,72.401l-128-72.401V49.601L235.02-22.801z"/>
</g>
<g id="Base">
	<g display="none">
		<path display="inline" fill="#B99664" d="M305.571,184.468l-67.051,14.75l0.018-95.95l-5.86-9.327l-0.015-0.026l-5.647,8.989
			v0.047l-12.269,19.528c-2.807,4.468-7.501,7.407-12.746,7.983l-53.558,5.892v53.397c0,2.704,1.882,5.044,4.523,5.626
			l76.843,16.902c0.9,0.545,1.922,0.839,2.968,0.839c0.414,0,0.828-0.043,1.239-0.134l78.574-17.284
			c2.643-0.581,4.522-2.92,4.522-5.627V136.68l-11.523-1.269L305.571,184.468z"/>
		<path display="inline" fill="#B99664" d="M348.617,119.174l-32.665-43.349c-0.827-1.098-2.02-1.863-3.362-2.157l-78.574-17.284
			c-0.127-0.029-0.253-0.009-0.38-0.029c-0.284-0.042-0.565-0.058-0.859-0.058c-0.289,0-0.57,0.016-0.855,0.058
			c-0.128,0.02-0.254,0-0.383,0.029l-78.573,17.284c-1.344,0.295-2.536,1.06-3.362,2.157l-32.666,43.349
			c-1.384,1.834-1.543,4.318-0.406,6.315c1.03,1.815,2.951,2.912,5.005,2.912c0.21,0,0.421-0.011,0.632-0.034l78.574-8.641
			c1.749-0.192,3.312-1.174,4.248-2.662l27.787-44.227l27.788,44.227c0.936,1.488,2.499,2.47,4.248,2.662l78.575,8.641
			c0.212,0.023,0.419,0.034,0.631,0.034c2.053,0,3.974-1.097,5.005-2.912C350.16,123.492,350,121.008,348.617,119.174z"/>
	</g>
	<g>
		<g>
			<path d="M359.485,440.684H107.792c-13.34,0-24.154-10.814-24.154-24.154V114.838c0-13.34,10.814-24.154,24.154-24.154h251.692
				c13.34,0,24.154,10.814,24.154,24.154V416.53C383.638,429.87,372.824,440.684,359.485,440.684z"/>
			<path fill="#B99664" d="M357.837,425.684H109.44c-5.965,0-10.801-4.836-10.801-10.801V116.485
				c0-5.965,4.836-10.801,10.801-10.801h248.397c5.965,0,10.801,4.836,10.801,10.801v298.397
				C368.638,420.848,363.802,425.684,357.837,425.684z"/>
			<rect x="114.215" y="124.781" width="238.846" height="289.032"/>
			<rect x="128.215" y="141.723" fill="#FFFFFF" width="210.846" height="255.149"/>
			<path d="M294.033,141.811c0,2.972-2.106,6.619-4.679,8.105l-50.642,29.237c-2.573,1.486-6.786,1.486-9.359,0l-50.641-29.237
				c-2.574-1.486-4.679-5.133-4.679-8.105V83.335c0-2.972,2.105-6.619,4.679-8.105l50.641-29.238c2.573-1.486,6.786-1.486,9.359,0
				l50.642,29.238c2.573,1.486,4.679,5.133,4.679,8.105V141.811z"/>
			<g>
				<path fill="#FFFFFF" d="M233.854,61.07l44.983,25.444v50.899l-44.983,25.444l-44.983-25.444V86.514L233.854,61.07z"/>
				<g>
					<path fill="#8ED6FB" d="M276.033,138.981l-40.437,22.876v-17.813l25.195-13.863L276.033,138.981L276.033,138.981z
						 M278.802,136.476V88.643l-14.791,8.549v30.748L278.802,136.476L278.802,136.476z M191.607,138.981l40.437,22.876v-17.813
						l-25.208-13.863L191.607,138.981z M188.837,136.476V88.643l14.791,8.549v30.748L188.837,136.476z M190.573,85.542
						l41.471-23.459V79.3L205.47,93.918l-0.212,0.12L190.573,85.542z M277.066,85.542l-41.47-23.459V79.3l26.574,14.606l0.212,0.119
						L277.066,85.542L277.066,85.542z"/>
					<path fill="#1C78C0" d="M232.044,139.988l-24.864-13.678V99.234l24.864,14.354V139.988L232.044,139.988z M235.596,139.988
						l24.864-13.665v-27.09l-24.864,14.354V139.988z M208.863,96.105l24.957-13.717l24.957,13.717l-24.957,14.407L208.863,96.105z"
						/>
				</g>
			</g>
		</g>
		<g>
			<rect x="211.826" y="202.841" width="110.621" height="15"/>
			<path d="M322.447,243.684h-34.675v-15h34.675V243.684z M281.175,243.684h-69.35v-15h69.35V243.684z"/>
		</g>
		<path d="M322.447,310.606h-71.665v-15h71.665V310.606z M239.293,310.606h-27.468v-15h27.468V310.606z M322.447,284.762H211.826
			v-15h110.621V284.762z"/>
		<g>
			<rect x="211.826" y="336.684" width="110.621" height="15"/>
			<rect x="211.826" y="362.527" width="46.535" height="15"/>
			<rect x="267.136" y="362.527" width="55.311" height="15"/>
		</g>
		<polygon points="139.971,224.793 150.592,214.893 160.981,226.033 189.05,199.86 199.06,210.595 160.371,246.665 		"/>
		<polygon points="140.171,291.702 150.735,281.856 161.046,292.911 188.904,266.936 198.858,277.611 160.438,313.432 		"/>
		<polygon points="155.799,378.629 137.144,358.624 147.707,348.779 158.018,359.833 185.876,333.858 195.83,344.534 
			157.412,380.353 		"/>
	</g>
</g>
</svg>
